<?xml version="1.0" ?><svg clip-rule="evenodd" fill-rule="evenodd" image-rendering="optimizeQuality" shape-rendering="geometricPrecision" text-rendering="geometricPrecision" viewBox="0 0 500 500" xmlns="http://www.w3.org/2000/svg"><defs><linearGradient gradientUnits="userSpaceOnUse" id="a" x1="249.999" x2="249.999" y1="112.399" y2="412.599"><stop offset="0" stop-color="#FCFCFD"/><stop offset="1" stop-color="#fff"/></linearGradient><linearGradient gradientUnits="userSpaceOnUse" id="b" x1="249.998" x2="249.998" y1="34.201" y2="85.799"><stop offset="0" stop-color="#008BFF"/><stop offset="1" stop-color="#0af"/></linearGradient></defs><g><path d="M95 65h310c8 0 15 7 15 15v365c0 8-7 15-15 15h-310c-8 0-15-7-15-15v-365c0-8 7-15 15-15z" fill="url(#a)" stroke="#434242" stroke-width="10"/><path d="M378 90h-256c-2 0-4-1-5-3 0-2 0-4 2-6l30-30c1-1 2-1 3-1h63c3 0 5-2 5-5v-10c0-3 2-5 5-5h50c3 0 5 2 5 5v10c0 3 2 5 5 5h63c1 0 2 0 3 1l30 30c2 2 2 4 2 6-1 2-3 3-5 3z" fill="url(#b)" stroke="#434242" stroke-width="10"/><path d="M120 140h40v40h-40v-40zm0 80h40v40h-40v-40zm0 80h40v40h-40v-40zm0 80h40v40h-40v-40zm55-210h165v10h-165v-10zm0 80h105v10h-105v-10zm0 80h165v10h-165v-10zm0 80h180v10h-180v-10zm0-265h205v10h-205v-10zm0 80h165v10h-165v-10zm0 80h130v10h-130v-10zm0 80h150v10h-150v-10z" fill="#434242"/></g></svg>